<?xml version="1.0" encoding="utf-8"?>
<!-- Generator: Adobe Illustrator 24.0.2, SVG Export Plug-In . SVG Version: 6.00 Build 0)  -->
<svg version="1.1" id="Layer_1" xmlns="http://www.w3.org/2000/svg" xmlns:xlink="http://www.w3.org/1999/xlink" x="0px" y="0px"
	 viewBox="0 0 340 90" style="enable-background:new 0 0 340 90;" xml:space="preserve">
<style type="text/css">
	.st0{fill:#FFFFFF;}
</style>
<g>
	<g transform="translate(0.000000,484.000000) scale(0.100000,-0.100000)">
		<path class="st0" d="M417.1,4839.6c-4.1-0.4-16.8-2-28.1-3.3c-88.8-10.2-180.4-54.2-249-119.3c-112.7-107.1-161.9-264-131-417.6
			c23.5-115.3,94.2-219.4,194.1-285.1c54.6-35.9,118.6-59.8,183.2-68.8c31.8-4.6,95.5-4.6,126.2-0.2
			c150.6,21.8,278.3,115.8,343.2,252.5c6.1,13.3,13.9,31.6,17.4,40.9c3.3,9.6,7,17.4,8.3,17.8c1.3,0.4,9.1,2.2,17.6,4.1
			c8.3,2,24.8,8.1,37,13.7c33.5,15.9,49.2,15.2,99.5-4.4c13.9-5.2,14.4-5.4,15.5-1.3c0.7,2.2,0.4,4.6-0.7,5.2
			c-4.4,2.6-112.1,44.6-114.7,44.6c-1.5,0-9.8-3.5-18.1-7.6c-28.1-14.1-44.2-17.4-86-17.2c-42.2,0-62.9,3.3-125.1,19.4
			c-175.2,45.3-234.8,57-319.5,62.5c-101.2,6.5-180.6-12.8-237-58.1c-29.2-23.5-48.5-48.3-68.3-88.1l-10.2-20.7l-2.6,6.5
			c-4.6,11.3,2.6,68.1,14.1,113.4c25.7,100.3,82.9,183.2,164.3,237.4c48.5,32.4,113.4,55.9,176.3,63.8c23.7,2.8,85.1,2.8,108.8,0
			c94-11.5,186.9-51.8,265.5-114.5c23.9-19.4,67-62.5,84.9-85.5l14.1-18.1l0.7,9.1c0.9,11.3-4.8,51.8-10.7,75.1
			c-11.3,45.9-32.2,95.1-56.8,134.9c-48.3,77.5-125.4,141.9-211.8,176.7c-52.4,21.1-99.5,30.7-157.8,32
			C440.8,4840.2,421.3,4840,417.1,4839.6z"/>
		<path class="st0" d="M430.2,4494.6c-76.6-6.7-144.9-28.9-199.6-64.9c-11.1-7.2-20.2-13.5-20.2-13.9c0-0.4,9.6,3.9,21.3,9.6
			c96,47.7,233.5,55.9,395.4,23.5c45.5-8.9,100.5-23.5,148.6-39.2c35-11.5,57.9-20,139.3-50.9l13.7-5.4l-6.7,9.4
			c-3.7,5-9.6,12.8-12.6,17.2c-6.5,8.9-28.9,20.5-82.7,42.2C690,4477.7,543.3,4504.4,430.2,4494.6z"/>
	</g>
</g>
<g>
	<path class="st0" d="M129.3,39.2c-1.2,0.6-2.6,0.9-4.3,0.9c-2.2,0-4-0.7-5.4-2.1c-1.3-1.4-2-3.3-2-5.6c0-2.5,0.8-4.5,2.3-6
		c1.5-1.5,3.4-2.3,5.7-2.3c1.5,0,2.7,0.2,3.7,0.6v2.5c-1-0.6-2.2-0.9-3.4-0.9c-1.7,0-3,0.5-4.1,1.6c-1,1.1-1.6,2.5-1.6,4.3
		c0,1.7,0.5,3,1.4,4.1c1,1,2.2,1.5,3.8,1.5c1.5,0,2.7-0.3,3.8-1V39.2z"/>
	<path class="st0" d="M141.3,35h-7.5c0,1,0.3,1.8,0.9,2.4c0.6,0.6,1.4,0.8,2.5,0.8c1.2,0,2.3-0.4,3.2-1.1v2c-1,0.6-2.3,0.9-4,0.9
		c-1.6,0-2.9-0.5-3.8-1.5c-0.9-1-1.4-2.4-1.4-4.2c0-1.7,0.5-3.1,1.5-4.2c1-1.1,2.3-1.6,3.8-1.6s2.7,0.5,3.5,1.5s1.2,2.3,1.2,4V35z
		 M138.9,33.2c0-0.9-0.2-1.6-0.6-2.1c-0.4-0.5-1-0.7-1.7-0.7c-0.7,0-1.3,0.3-1.8,0.8c-0.5,0.5-0.8,1.2-0.9,2.1H138.9z"/>
	<path class="st0" d="M153.5,39.8H151v-6.2c0-2.1-0.7-3.1-2.2-3.1c-0.8,0-1.4,0.3-1.9,0.9s-0.7,1.3-0.7,2.2v6.3h-2.5v-11h2.5v1.8h0
		c0.8-1.4,2-2.1,3.6-2.1c1.2,0,2.1,0.4,2.7,1.2c0.6,0.8,0.9,1.9,0.9,3.4V39.8z"/>
	<path class="st0" d="M162.3,39.7c-0.5,0.2-1.1,0.4-1.9,0.4c-2.1,0-3.2-1-3.2-3.1v-6.2h-1.8v-2h1.8v-2.5l2.5-0.7v3.3h2.6v2h-2.6v5.5
		c0,0.7,0.1,1.1,0.4,1.4s0.6,0.4,1.2,0.4c0.4,0,0.8-0.1,1.1-0.4V39.7z"/>
	<path class="st0" d="M170.8,31.2c-0.3-0.2-0.7-0.4-1.3-0.4c-0.7,0-1.4,0.3-1.8,1s-0.7,1.6-0.7,2.7v5.3h-2.5v-11h2.5v2.3h0
		c0.2-0.8,0.6-1.4,1.1-1.8c0.5-0.4,1.1-0.6,1.7-0.6c0.5,0,0.8,0.1,1,0.2V31.2z"/>
	<path class="st0" d="M181,39.8h-2.4v-1.7h0c-0.8,1.3-1.9,2-3.3,2c-1.1,0-1.9-0.3-2.5-0.9c-0.6-0.6-0.9-1.4-0.9-2.3
		c0-2.1,1.2-3.3,3.6-3.6l3.3-0.5c0-1.6-0.7-2.4-2.2-2.4c-1.3,0-2.5,0.5-3.5,1.4v-2.2c1.2-0.7,2.5-1,4-1c2.8,0,4.2,1.4,4.2,4.1V39.8z
		 M178.6,34.4l-2.3,0.3c-0.7,0.1-1.3,0.3-1.6,0.5c-0.4,0.3-0.5,0.7-0.5,1.3c0,0.5,0.2,0.8,0.5,1.1c0.3,0.3,0.8,0.4,1.3,0.4
		c0.8,0,1.4-0.3,1.9-0.8c0.5-0.5,0.7-1.2,0.7-2V34.4z"/>
	<path class="st0" d="M186.6,39.8h-2.5V23.5h2.5V39.8z"/>
	<path class="st0" d="M206.9,39.2c-1.2,0.6-2.6,0.9-4.3,0.9c-2.2,0-4-0.7-5.4-2.1c-1.3-1.4-2-3.3-2-5.6c0-2.5,0.8-4.5,2.3-6
		c1.5-1.5,3.4-2.3,5.7-2.3c1.5,0,2.7,0.2,3.7,0.6v2.5c-1-0.6-2.2-0.9-3.4-0.9c-1.7,0-3,0.5-4.1,1.6c-1,1.1-1.6,2.5-1.6,4.3
		c0,1.7,0.5,3,1.5,4.1c1,1,2.2,1.5,3.8,1.5c1.5,0,2.7-0.3,3.8-1V39.2z"/>
	<path class="st0" d="M214.4,40.1c-1.7,0-3.1-0.5-4.1-1.5c-1-1-1.5-2.4-1.5-4.1c0-1.8,0.5-3.3,1.6-4.3c1.1-1,2.5-1.6,4.3-1.6
		c1.7,0,3.1,0.5,4,1.5s1.4,2.4,1.4,4.2c0,1.8-0.5,3.2-1.6,4.2C217.5,39.5,216.2,40.1,214.4,40.1z M214.5,30.5c-1,0-1.7,0.3-2.3,1
		c-0.6,0.7-0.8,1.6-0.8,2.8c0,1.2,0.3,2.1,0.9,2.7c0.6,0.7,1.3,1,2.3,1c1,0,1.7-0.3,2.3-1c0.5-0.7,0.8-1.6,0.8-2.8
		c0-1.2-0.3-2.1-0.8-2.8C216.3,30.9,215.5,30.5,214.5,30.5z"/>
	<path class="st0" d="M230.9,39.8h-2.4v-1.7h0c-0.8,1.3-1.9,2-3.3,2c-1.1,0-1.9-0.3-2.5-0.9c-0.6-0.6-0.9-1.4-0.9-2.3
		c0-2.1,1.2-3.3,3.6-3.6l3.3-0.5c0-1.6-0.7-2.4-2.2-2.4c-1.3,0-2.5,0.5-3.5,1.4v-2.2c1.2-0.7,2.5-1,4-1c2.8,0,4.2,1.4,4.2,4.1V39.8z
		 M228.4,34.4l-2.3,0.3c-0.7,0.1-1.3,0.3-1.6,0.5c-0.4,0.3-0.5,0.7-0.5,1.3c0,0.5,0.2,0.8,0.5,1.1c0.3,0.3,0.8,0.4,1.3,0.4
		c0.8,0,1.4-0.3,1.9-0.8c0.5-0.5,0.7-1.2,0.7-2V34.4z"/>
	<path class="st0" d="M233.2,39.5v-2.3c0.9,0.7,2,1.1,3.1,1.1c1.5,0,2.3-0.4,2.3-1.3c0-0.3-0.1-0.5-0.2-0.6
		c-0.1-0.2-0.3-0.3-0.5-0.5c-0.2-0.1-0.5-0.3-0.8-0.4c-0.3-0.1-0.6-0.2-1-0.4c-0.5-0.2-0.9-0.4-1.2-0.6c-0.4-0.2-0.7-0.4-0.9-0.7
		c-0.2-0.3-0.4-0.5-0.5-0.9s-0.2-0.7-0.2-1.1c0-0.5,0.1-1,0.4-1.4c0.3-0.4,0.6-0.7,1-1c0.4-0.3,0.9-0.5,1.4-0.6s1.1-0.2,1.7-0.2
		c1,0,1.9,0.2,2.7,0.5v2.2c-0.8-0.5-1.7-0.8-2.7-0.8c-0.3,0-0.6,0-0.9,0.1c-0.3,0.1-0.5,0.2-0.7,0.3c-0.2,0.1-0.3,0.3-0.4,0.4
		s-0.2,0.3-0.2,0.5c0,0.2,0,0.4,0.2,0.6c0.1,0.2,0.2,0.3,0.4,0.4c0.2,0.1,0.4,0.2,0.7,0.3c0.3,0.1,0.6,0.2,1,0.3
		c0.5,0.2,0.9,0.4,1.3,0.6c0.4,0.2,0.7,0.4,1,0.7c0.3,0.3,0.5,0.5,0.6,0.9s0.2,0.7,0.2,1.2c0,0.6-0.1,1-0.4,1.5
		c-0.3,0.4-0.6,0.8-1,1c-0.4,0.3-0.9,0.5-1.5,0.6c-0.6,0.1-1.2,0.2-1.8,0.2C235.1,40.1,234.1,39.9,233.2,39.5z"/>
	<path class="st0" d="M249.2,39.7c-0.5,0.2-1.1,0.4-1.9,0.4c-2.1,0-3.2-1-3.2-3.1v-6.2h-1.8v-2h1.8v-2.5l2.5-0.7v3.3h2.6v2h-2.6v5.5
		c0,0.7,0.1,1.1,0.4,1.4s0.6,0.4,1.2,0.4c0.4,0,0.8-0.1,1.1-0.4V39.7z"/>
	<path class="st0" d="M129.2,65.6c-1.1,0.6-2.6,0.9-4.3,0.9c-2.2,0-3.9-0.7-5.3-2.1c-1.3-1.4-2-3.3-2-5.6c0-2.5,0.7-4.5,2.2-6
		c1.5-1.5,3.4-2.3,5.6-2.3c1.5,0,2.7,0.2,3.6,0.6v1.9c-1.1-0.6-2.3-0.9-3.7-0.9c-1.8,0-3.2,0.6-4.3,1.8c-1.1,1.2-1.6,2.8-1.6,4.7
		c0,1.9,0.5,3.4,1.5,4.5c1,1.1,2.4,1.7,4,1.7c1.5,0,2.9-0.3,4-1V65.6z"/>
	<path class="st0" d="M133.8,66.2h-1.8V49.9h1.8V66.2z"/>
	<path class="st0" d="M138.3,52.4c-0.3,0-0.6-0.1-0.8-0.3s-0.3-0.5-0.3-0.8c0-0.3,0.1-0.6,0.3-0.8s0.5-0.3,0.8-0.3
		c0.3,0,0.6,0.1,0.8,0.3c0.2,0.2,0.3,0.5,0.3,0.8c0,0.3-0.1,0.6-0.3,0.8C138.9,52.3,138.6,52.4,138.3,52.4z M139.2,66.2h-1.8v-11
		h1.8V66.2z"/>
	<path class="st0" d="M158.4,66.2h-1.8v-6.3c0-1.2-0.2-2.1-0.6-2.6c-0.4-0.5-1-0.8-1.9-0.8c-0.8,0-1.4,0.3-1.9,1
		c-0.5,0.7-0.8,1.5-0.8,2.5v6.3h-1.8v-6.5c0-2.2-0.8-3.2-2.5-3.2c-0.8,0-1.4,0.3-1.9,1s-0.8,1.5-0.8,2.5v6.3h-1.8v-11h1.8V57h0
		c0.8-1.3,1.9-2,3.4-2c0.8,0,1.4,0.2,2,0.6s0.9,1,1.1,1.6c0.8-1.5,2-2.3,3.7-2.3c2.4,0,3.6,1.5,3.6,4.5V66.2z"/>
	<path class="st0" d="M169.6,66.2h-1.8v-1.7h0c-0.8,1.3-1.9,2-3.4,2c-1.1,0-2-0.3-2.6-0.9c-0.6-0.6-0.9-1.3-0.9-2.3
		c0-2.1,1.2-3.3,3.6-3.6l3.3-0.5c0-1.9-0.8-2.8-2.3-2.8c-1.3,0-2.5,0.5-3.6,1.4V56c1.1-0.7,2.3-1,3.7-1c2.6,0,3.9,1.4,3.9,4.1V66.2z
		 M167.8,60.6l-2.7,0.4c-0.8,0.1-1.4,0.3-1.8,0.6s-0.6,0.8-0.6,1.5c0,0.5,0.2,1,0.6,1.3c0.4,0.3,0.9,0.5,1.5,0.5
		c0.9,0,1.6-0.3,2.2-0.9c0.6-0.6,0.9-1.4,0.9-2.3V60.6z"/>
	<path class="st0" d="M178,66.1c-0.4,0.2-1,0.3-1.6,0.3c-1.9,0-2.9-1.1-2.9-3.2v-6.5h-1.9v-1.5h1.9v-2.7l1.8-0.6v3.3h2.8v1.5h-2.8
		v6.2c0,0.7,0.1,1.3,0.4,1.6s0.7,0.5,1.2,0.5c0.4,0,0.8-0.1,1.1-0.4V66.1z"/>
	<path class="st0" d="M189.2,61.2h-7.8c0,1.2,0.4,2.2,1,2.8s1.5,1,2.6,1c1.2,0,2.4-0.4,3.4-1.2v1.7c-1,0.7-2.2,1.1-3.8,1.1
		c-1.6,0-2.8-0.5-3.7-1.5c-0.9-1-1.3-2.4-1.3-4.2c0-1.7,0.5-3.1,1.5-4.2c1-1.1,2.2-1.6,3.6-1.6s2.6,0.5,3.3,1.4
		c0.8,0.9,1.2,2.2,1.2,3.9V61.2z M187.4,59.7c0-1-0.3-1.8-0.7-2.4c-0.5-0.6-1.2-0.8-2-0.8c-0.8,0-1.5,0.3-2.1,0.9
		c-0.6,0.6-0.9,1.4-1.1,2.3H187.4z"/>
	<path class="st0" d="M208.6,65.6c-1.1,0.6-2.6,0.9-4.3,0.9c-2.2,0-3.9-0.7-5.3-2.1c-1.3-1.4-2-3.3-2-5.6c0-2.5,0.7-4.5,2.2-6
		c1.5-1.5,3.4-2.3,5.6-2.3c1.5,0,2.7,0.2,3.6,0.6v1.9c-1.1-0.6-2.3-0.9-3.7-0.9c-1.8,0-3.2,0.6-4.3,1.8c-1.1,1.2-1.6,2.8-1.6,4.7
		c0,1.9,0.5,3.4,1.5,4.5c1,1.1,2.4,1.7,4,1.7c1.5,0,2.9-0.3,4-1V65.6z"/>
	<path class="st0" d="M216.1,66.5c-1.6,0-2.9-0.5-3.9-1.5c-1-1-1.5-2.4-1.5-4.1c0-1.8,0.5-3.3,1.5-4.3c1-1,2.4-1.6,4.1-1.6
		c1.6,0,2.9,0.5,3.8,1.5c0.9,1,1.4,2.4,1.4,4.2c0,1.8-0.5,3.2-1.5,4.2C219.1,65.9,217.8,66.5,216.1,66.5z M216.2,56.4
		c-1.1,0-2,0.4-2.7,1.2s-1,1.8-1,3.2c0,1.3,0.3,2.3,1,3.1s1.6,1.1,2.7,1.1c1.1,0,2-0.4,2.6-1.1c0.6-0.7,0.9-1.8,0.9-3.1
		c0-1.4-0.3-2.4-0.9-3.2C218.2,56.8,217.4,56.4,216.2,56.4z"/>
	<path class="st0" d="M226.1,66.2h-1.8V49.9h1.8V66.2z"/>
	<path class="st0" d="M231.5,66.2h-1.8V49.9h1.8V66.2z"/>
	<path class="st0" d="M242.9,66.2h-1.8v-1.7h0c-0.8,1.3-1.9,2-3.4,2c-1.1,0-2-0.3-2.6-0.9c-0.6-0.6-0.9-1.3-0.9-2.3
		c0-2.1,1.2-3.3,3.6-3.6l3.3-0.5c0-1.9-0.8-2.8-2.3-2.8c-1.3,0-2.5,0.5-3.6,1.4V56c1.1-0.7,2.3-1,3.7-1c2.6,0,3.9,1.4,3.9,4.1V66.2z
		 M241.2,60.6l-2.7,0.4c-0.8,0.1-1.4,0.3-1.8,0.6s-0.6,0.8-0.6,1.5c0,0.5,0.2,1,0.6,1.3c0.4,0.3,0.9,0.5,1.5,0.5
		c0.9,0,1.6-0.3,2.2-0.9c0.6-0.6,0.9-1.4,0.9-2.3V60.6z"/>
	<path class="st0" d="M248,64.6L248,64.6l0,1.6h-1.8V49.9h1.8v7.2h0c0.9-1.5,2.1-2.2,3.8-2.2c1.4,0,2.5,0.5,3.3,1.5
		c0.8,1,1.2,2.3,1.2,4c0,1.8-0.4,3.3-1.3,4.4c-0.9,1.1-2.1,1.7-3.7,1.7C249.9,66.5,248.8,65.9,248,64.6z M248,60.2v1.5
		c0,0.9,0.3,1.7,0.9,2.3c0.6,0.6,1.3,1,2.3,1c1.1,0,1.9-0.4,2.5-1.2c0.6-0.8,0.9-2,0.9-3.4c0-1.2-0.3-2.2-0.8-2.9
		c-0.6-0.7-1.3-1-2.3-1c-1,0-1.8,0.4-2.5,1.1S248,59.1,248,60.2z"/>
	<path class="st0" d="M263.8,66.5c-1.6,0-2.9-0.5-3.9-1.5c-1-1-1.5-2.4-1.5-4.1c0-1.8,0.5-3.3,1.5-4.3c1-1,2.4-1.6,4.1-1.6
		c1.6,0,2.9,0.5,3.8,1.5c0.9,1,1.4,2.4,1.4,4.2c0,1.8-0.5,3.2-1.5,4.2C266.8,65.9,265.4,66.5,263.8,66.5z M263.9,56.4
		c-1.1,0-2,0.4-2.7,1.2s-1,1.8-1,3.2c0,1.3,0.3,2.3,1,3.1s1.6,1.1,2.7,1.1c1.1,0,2-0.4,2.6-1.1c0.6-0.7,0.9-1.8,0.9-3.1
		c0-1.4-0.3-2.4-0.9-3.2C265.9,56.8,265,56.4,263.9,56.4z"/>
	<path class="st0" d="M277.8,57c-0.3-0.2-0.8-0.4-1.3-0.4c-0.8,0-1.4,0.4-1.9,1.1c-0.5,0.7-0.8,1.7-0.8,2.9v5.6h-1.8v-11h1.8v2.3h0
		c0.3-0.8,0.6-1.4,1.1-1.8s1.1-0.7,1.7-0.7c0.5,0,0.8,0.1,1.1,0.2V57z"/>
	<path class="st0" d="M287.6,66.2h-1.8v-1.7h0c-0.8,1.3-1.9,2-3.4,2c-1.1,0-2-0.3-2.6-0.9c-0.6-0.6-0.9-1.3-0.9-2.3
		c0-2.1,1.2-3.3,3.6-3.6l3.3-0.5c0-1.9-0.8-2.8-2.3-2.8c-1.3,0-2.5,0.5-3.6,1.4V56c1.1-0.7,2.3-1,3.7-1c2.6,0,3.9,1.4,3.9,4.1V66.2z
		 M285.8,60.6l-2.7,0.4c-0.8,0.1-1.4,0.3-1.8,0.6s-0.6,0.8-0.6,1.5c0,0.5,0.2,1,0.6,1.3c0.4,0.3,0.9,0.5,1.5,0.5
		c0.9,0,1.6-0.3,2.2-0.9c0.6-0.6,0.9-1.4,0.9-2.3V60.6z"/>
	<path class="st0" d="M296,66.1c-0.4,0.2-1,0.3-1.6,0.3c-1.9,0-2.9-1.1-2.9-3.2v-6.5h-1.9v-1.5h1.9v-2.7l1.8-0.6v3.3h2.8v1.5h-2.8
		v6.2c0,0.7,0.1,1.3,0.4,1.6s0.7,0.5,1.2,0.5c0.4,0,0.8-0.1,1.1-0.4V66.1z"/>
	<path class="st0" d="M299.3,52.4c-0.3,0-0.6-0.1-0.8-0.3s-0.3-0.5-0.3-0.8c0-0.3,0.1-0.6,0.3-0.8s0.5-0.3,0.8-0.3
		c0.3,0,0.6,0.1,0.8,0.3c0.2,0.2,0.3,0.5,0.3,0.8c0,0.3-0.1,0.6-0.3,0.8C299.9,52.3,299.6,52.4,299.3,52.4z M300.1,66.2h-1.8v-11
		h1.8V66.2z"/>
	<path class="st0" d="M312.3,55.2l-4.4,11h-1.7l-4.2-11h1.9l2.8,8c0.2,0.6,0.3,1.1,0.4,1.5h0c0.1-0.6,0.2-1,0.3-1.5l2.9-8H312.3z"/>
	<path class="st0" d="M323.1,61.2h-7.8c0,1.2,0.4,2.2,1,2.8s1.5,1,2.6,1c1.2,0,2.4-0.4,3.4-1.2v1.7c-1,0.7-2.2,1.1-3.8,1.1
		c-1.6,0-2.8-0.5-3.7-1.5c-0.9-1-1.3-2.4-1.3-4.2c0-1.7,0.5-3.1,1.5-4.2c1-1.1,2.2-1.6,3.6-1.6s2.6,0.5,3.3,1.4
		c0.8,0.9,1.2,2.2,1.2,3.9V61.2z M321.3,59.7c0-1-0.3-1.8-0.7-2.4c-0.5-0.6-1.2-0.8-2-0.8c-0.8,0-1.5,0.3-2.1,0.9
		c-0.6,0.6-0.9,1.4-1.1,2.3H321.3z"/>
</g>
</svg>
