<?xml version="1.0" encoding="utf-8"?>
<!-- Generator: Adobe Illustrator 24.0.2, SVG Export Plug-In . SVG Version: 6.00 Build 0)  -->
<svg version="1.1" id="Layer_1" xmlns="http://www.w3.org/2000/svg" xmlns:xlink="http://www.w3.org/1999/xlink" x="0px" y="0px"
	 viewBox="0 0 484 484" style="enable-background:new 0 0 484 484;" xml:space="preserve">
<style type="text/css">
	.st0{fill:#FFFFFF;}
</style>
<g transform="translate(0.000000,484.000000) scale(0.100000,-0.100000)">
	<path class="st0" d="M1920,4484c-19-2-77-9-129-15c-408-47-829-249-1144-548C129,3429-97,2708,45,2002C153,1472,478,994,937,692
		c251-165,545-275,842-316c146-21,439-21,580-1c692,100,1279,532,1577,1160c28,61,64,145,80,188c15,44,32,80,38,82s42,10,81,19
		c38,9,114,37,170,63c154,73,226,70,457-20c64-24,66-25,71-6c3,10,2,21-3,24c-20,12-515,205-527,205c-7,0-45-16-83-35
		c-129-65-203-80-395-79c-194,0-289,15-575,89c-805,208-1079,262-1468,287c-465,30-830-59-1089-267c-134-108-223-222-314-405l-47-95
		l-12,30c-21,52,12,313,65,521c118,461,381,842,755,1091c223,149,521,257,810,293c109,13,391,13,500,0c432-53,859-238,1220-526
		c110-89,308-287,390-393l65-83l3,42c4,52-22,238-49,345c-52,211-148,437-261,620c-222,356-576,652-973,812c-241,97-457,141-725,147
		C2029,4487,1939,4486,1920,4484z"/>
	<path class="st0" d="M1980,2899c-352-31-666-133-917-298c-51-33-93-62-93-64s44,18,98,44c441,219,1073,257,1817,108
		c209-41,462-108,683-180c161-53,266-92,640-234l63-25l-31,43c-17,23-44,59-58,79c-30,41-133,94-380,194
		C3174,2821,2500,2944,1980,2899z"/>
</g>
</svg>
