<svg version="1.1" id="Layer_1" xmlns="http://www.w3.org/2000/svg" x="0" y="0" viewBox="0 0 340 90" xml:space="preserve"><style>.st0{fill:#fff}</style><path class="st0" d="M417.1 4839.6c-4.1-.4-16.8-2-28.1-3.3-88.8-10.2-180.4-54.2-249-119.3C27.3 4609.9-21.9 4453 9 4299.4c23.5-115.3 94.2-219.4 194.1-285.1 54.6-35.9 118.6-59.8 183.2-68.8 31.8-4.6 95.5-4.6 126.2-.2 150.6 21.8 278.3 115.8 343.2 252.5 6.1 13.3 13.9 31.6 17.4 40.9 3.3 9.6 7 17.4 8.3 17.8 1.3.4 9.1 2.2 17.6 4.1 8.3 2 24.8 8.1 37 13.7 33.5 15.9 49.2 15.2 99.5-4.4 13.9-5.2 14.4-5.4 15.5-1.3.7 2.2.4 4.6-.7 5.2-4.4 2.6-112.1 44.6-114.7 44.6-1.5 0-9.8-3.5-18.1-7.6-28.1-14.1-44.2-17.4-86-17.2-42.2 0-62.9 3.3-125.1 19.4-175.2 45.3-234.8 57-319.5 62.5-101.2 6.5-180.6-12.8-237-58.1-29.2-23.5-48.5-48.3-68.3-88.1l-10.2-20.7-2.6 6.5c-4.6 11.3 2.6 68.1 14.1 113.4 25.7 100.3 82.9 183.2 164.3 237.4 48.5 32.4 113.4 55.9 176.3 63.8 23.7 2.8 85.1 2.8 108.8 0 94-11.5 186.9-51.8 265.5-114.5 23.9-19.4 67-62.5 84.9-85.5l14.1-18.1.7 9.1c.9 11.3-4.8 51.8-10.7 75.1-11.3 45.9-32.2 95.1-56.8 134.9-48.3 77.5-125.4 141.9-211.8 176.7-52.4 21.1-99.5 30.7-157.8 32-19.6.8-39.1.6-43.3.2z" transform="matrix(.1 0 0 -.1 0 484)"/><path class="st0" d="M430.2 4494.6c-76.6-6.7-144.9-28.9-199.6-64.9-11.1-7.2-20.2-13.5-20.2-13.9 0-.4 9.6 3.9 21.3 9.6 96 47.7 233.5 55.9 395.4 23.5 45.5-8.9 100.5-23.5 148.6-39.2 35-11.5 57.9-20 139.3-50.9l13.7-5.4-6.7 9.4c-3.7 5-9.6 12.8-12.6 17.2-6.5 8.9-28.9 20.5-82.7 42.2-136.7 55.5-283.4 82.2-396.5 72.4z" transform="matrix(.1 0 0 -.1 0 484)"/><path class="st0" d="M129.3 39.2c-1.2.6-2.6.9-4.3.9-2.2 0-4-.7-5.4-2.1-1.3-1.4-2-3.3-2-5.6 0-2.5.8-4.5 2.3-6 1.5-1.5 3.4-2.3 5.7-2.3 1.5 0 2.7.2 3.7.6v2.5c-1-.6-2.2-.9-3.4-.9-1.7 0-3 .5-4.1 1.6-1 1.1-1.6 2.5-1.6 4.3 0 1.7.5 3 1.4 4.1 1 1 2.2 1.5 3.8 1.5 1.5 0 2.7-.3 3.8-1v2.4zm12-4.2h-7.5c0 1 .3 1.8.9 2.4.6.6 1.4.8 2.5.8 1.2 0 2.3-.4 3.2-1.1v2c-1 .6-2.3.9-4 .9-1.6 0-2.9-.5-3.8-1.5-.9-1-1.4-2.4-1.4-4.2 0-1.7.5-3.1 1.5-4.2s2.3-1.6 3.8-1.6 2.7.5 3.5 1.5 1.2 2.3 1.2 4v1zm-2.4-1.8c0-.9-.2-1.6-.6-2.1-.4-.5-1-.7-1.7-.7s-1.3.3-1.8.8-.8 1.2-.9 2.1h5zm14.6 6.6H151v-6.2c0-2.1-.7-3.1-2.2-3.1-.8 0-1.4.3-1.9.9s-.7 1.3-.7 2.2v6.3h-2.5v-11h2.5v1.8c.8-1.4 2-2.1 3.6-2.1 1.2 0 2.1.4 2.7 1.2.6.8.9 1.9.9 3.4v6.6zm8.8-.1c-.5.2-1.1.4-1.9.4-2.1 0-3.2-1-3.2-3.1v-6.2h-1.8v-2h1.8v-2.5l2.5-.7v3.3h2.6v2h-2.6v5.5c0 .7.1 1.1.4 1.4s.6.4 1.2.4c.4 0 .8-.1 1.1-.4v1.9zm8.5-8.5c-.3-.2-.7-.4-1.3-.4-.7 0-1.4.3-1.8 1s-.7 1.6-.7 2.7v5.3h-2.5v-11h2.5v2.3c.2-.8.6-1.4 1.1-1.8.5-.4 1.1-.6 1.7-.6.5 0 .8.1 1 .2v2.3zm10.2 8.6h-2.4v-1.7c-.8 1.3-1.9 2-3.3 2-1.1 0-1.9-.3-2.5-.9-.6-.6-.9-1.4-.9-2.3 0-2.1 1.2-3.3 3.6-3.6l3.3-.5c0-1.6-.7-2.4-2.2-2.4-1.3 0-2.5.5-3.5 1.4v-2.2c1.2-.7 2.5-1 4-1 2.8 0 4.2 1.4 4.2 4.1v7.1zm-2.4-5.4l-2.3.3c-.7.1-1.3.3-1.6.5-.4.3-.5.7-.5 1.3 0 .5.2.8.5 1.1.3.3.8.4 1.3.4.8 0 1.4-.3 1.9-.8s.7-1.2.7-2v-.8zm8 5.4h-2.5V23.5h2.5v16.3zm20.3-.6c-1.2.6-2.6.9-4.3.9-2.2 0-4-.7-5.4-2.1-1.3-1.4-2-3.3-2-5.6 0-2.5.8-4.5 2.3-6 1.5-1.5 3.4-2.3 5.7-2.3 1.5 0 2.7.2 3.7.6v2.5c-1-.6-2.2-.9-3.4-.9-1.7 0-3 .5-4.1 1.6-1 1.1-1.6 2.5-1.6 4.3 0 1.7.5 3 1.5 4.1 1 1 2.2 1.5 3.8 1.5 1.5 0 2.7-.3 3.8-1v2.4zm7.5.9c-1.7 0-3.1-.5-4.1-1.5-1-1-1.5-2.4-1.5-4.1 0-1.8.5-3.3 1.6-4.3s2.5-1.6 4.3-1.6c1.7 0 3.1.5 4 1.5s1.4 2.4 1.4 4.2c0 1.8-.5 3.2-1.6 4.2-1 1-2.3 1.6-4.1 1.6zm.1-9.6c-1 0-1.7.3-2.3 1-.6.7-.8 1.6-.8 2.8 0 1.2.3 2.1.9 2.7.6.7 1.3 1 2.3 1 1 0 1.7-.3 2.3-1 .5-.7.8-1.6.8-2.8 0-1.2-.3-2.1-.8-2.8-.6-.5-1.4-.9-2.4-.9zm16.4 9.3h-2.4v-1.7c-.8 1.3-1.9 2-3.3 2-1.1 0-1.9-.3-2.5-.9-.6-.6-.9-1.4-.9-2.3 0-2.1 1.2-3.3 3.6-3.6l3.3-.5c0-1.6-.7-2.4-2.2-2.4-1.3 0-2.5.5-3.5 1.4v-2.2c1.2-.7 2.5-1 4-1 2.8 0 4.2 1.4 4.2 4.1v7.1zm-2.5-5.4l-2.3.3c-.7.1-1.3.3-1.6.5-.4.3-.5.7-.5 1.3 0 .5.2.8.5 1.1.3.3.8.4 1.3.4.8 0 1.4-.3 1.9-.8s.7-1.2.7-2v-.8zm4.8 5.1v-2.3c.9.7 2 1.1 3.1 1.1 1.5 0 2.3-.4 2.3-1.3 0-.3-.1-.5-.2-.6-.1-.2-.3-.3-.5-.5-.2-.1-.5-.3-.8-.4-.3-.1-.6-.2-1-.4-.5-.2-.9-.4-1.2-.6-.4-.2-.7-.4-.9-.7-.2-.3-.4-.5-.5-.9s-.2-.7-.2-1.1c0-.5.1-1 .4-1.4.3-.4.6-.7 1-1 .4-.3.9-.5 1.4-.6s1.1-.2 1.7-.2c1 0 1.9.2 2.7.5v2.2c-.8-.5-1.7-.8-2.7-.8-.3 0-.6 0-.9.1-.3.1-.5.2-.7.3-.2.1-.3.3-.4.4s-.2.3-.2.5 0 .4.2.6c.1.2.2.3.4.4.2.1.4.2.7.3.3.1.6.2 1 .3.5.2.9.4 1.3.6.4.2.7.4 1 .7.3.3.5.5.6.9s.2.7.2 1.2c0 .6-.1 1-.4 1.5-.3.4-.6.8-1 1-.4.3-.9.5-1.5.6-.6.1-1.2.2-1.8.2-1.2 0-2.2-.2-3.1-.6zm16 .2c-.5.2-1.1.4-1.9.4-2.1 0-3.2-1-3.2-3.1v-6.2h-1.8v-2h1.8v-2.5l2.5-.7v3.3h2.6v2h-2.6v5.5c0 .7.1 1.1.4 1.4s.6.4 1.2.4c.4 0 .8-.1 1.1-.4v1.9zm-120 25.9c-1.1.6-2.6.9-4.3.9-2.2 0-3.9-.7-5.3-2.1-1.3-1.4-2-3.3-2-5.6 0-2.5.7-4.5 2.2-6 1.5-1.5 3.4-2.3 5.6-2.3 1.5 0 2.7.2 3.6.6V53c-1.1-.6-2.3-.9-3.7-.9-1.8 0-3.2.6-4.3 1.8-1.1 1.2-1.6 2.8-1.6 4.7 0 1.9.5 3.4 1.5 4.5s2.4 1.7 4 1.7c1.5 0 2.9-.3 4-1v1.8zm4.6.6H132V49.9h1.8v16.3zm4.5-13.8c-.3 0-.6-.1-.8-.3s-.3-.5-.3-.8c0-.3.1-.6.3-.8s.5-.3.8-.3c.3 0 .6.1.8.3.2.2.3.5.3.8 0 .3-.1.6-.3.8-.2.2-.5.3-.8.3zm.9 13.8h-1.8v-11h1.8v11zm19.2 0h-1.8v-6.3c0-1.2-.2-2.1-.6-2.6-.4-.5-1-.8-1.9-.8-.8 0-1.4.3-1.9 1s-.8 1.5-.8 2.5v6.3h-1.8v-6.5c0-2.2-.8-3.2-2.5-3.2-.8 0-1.4.3-1.9 1s-.8 1.5-.8 2.5v6.3h-1.8v-11h1.8V57c.8-1.3 1.9-2 3.4-2 .8 0 1.4.2 2 .6s.9 1 1.1 1.6c.8-1.5 2-2.3 3.7-2.3 2.4 0 3.6 1.5 3.6 4.5v6.8zm11.2 0h-1.8v-1.7c-.8 1.3-1.9 2-3.4 2-1.1 0-2-.3-2.6-.9-.6-.6-.9-1.3-.9-2.3 0-2.1 1.2-3.3 3.6-3.6l3.3-.5c0-1.9-.8-2.8-2.3-2.8-1.3 0-2.5.5-3.6 1.4V56c1.1-.7 2.3-1 3.7-1 2.6 0 3.9 1.4 3.9 4.1v7.1zm-1.8-5.6l-2.7.4c-.8.1-1.4.3-1.8.6s-.6.8-.6 1.5c0 .5.2 1 .6 1.3.4.3.9.5 1.5.5.9 0 1.6-.3 2.2-.9.6-.6.9-1.4.9-2.3v-1.1zm10.2 5.5c-.4.2-1 .3-1.6.3-1.9 0-2.9-1.1-2.9-3.2v-6.5h-1.9v-1.5h1.9v-2.7l1.8-.6v3.3h2.8v1.5h-2.8v6.2c0 .7.1 1.3.4 1.6s.7.5 1.2.5c.4 0 .8-.1 1.1-.4v1.5zm11.2-4.9h-7.8c0 1.2.4 2.2 1 2.8s1.5 1 2.6 1c1.2 0 2.4-.4 3.4-1.2v1.7c-1 .7-2.2 1.1-3.8 1.1-1.6 0-2.8-.5-3.7-1.5-.9-1-1.3-2.4-1.3-4.2 0-1.7.5-3.1 1.5-4.2s2.2-1.6 3.6-1.6 2.6.5 3.3 1.4c.8.9 1.2 2.2 1.2 3.9v.8zm-1.8-1.5c0-1-.3-1.8-.7-2.4-.5-.6-1.2-.8-2-.8s-1.5.3-2.1.9c-.6.6-.9 1.4-1.1 2.3h5.9zm21.2 5.9c-1.1.6-2.6.9-4.3.9-2.2 0-3.9-.7-5.3-2.1-1.3-1.4-2-3.3-2-5.6 0-2.5.7-4.5 2.2-6 1.5-1.5 3.4-2.3 5.6-2.3 1.5 0 2.7.2 3.6.6V53c-1.1-.6-2.3-.9-3.7-.9-1.8 0-3.2.6-4.3 1.8-1.1 1.2-1.6 2.8-1.6 4.7 0 1.9.5 3.4 1.5 4.5s2.4 1.7 4 1.7c1.5 0 2.9-.3 4-1v1.8zm7.5.9c-1.6 0-2.9-.5-3.9-1.5s-1.5-2.4-1.5-4.1c0-1.8.5-3.3 1.5-4.3s2.4-1.6 4.1-1.6c1.6 0 2.9.5 3.8 1.5.9 1 1.4 2.4 1.4 4.2 0 1.8-.5 3.2-1.5 4.2-.9 1-2.2 1.6-3.9 1.6zm.1-10.1c-1.1 0-2 .4-2.7 1.2s-1 1.8-1 3.2c0 1.3.3 2.3 1 3.1s1.6 1.1 2.7 1.1 2-.4 2.6-1.1c.6-.7.9-1.8.9-3.1 0-1.4-.3-2.4-.9-3.2-.6-.8-1.4-1.2-2.6-1.2zm9.9 9.8h-1.8V49.9h1.8v16.3zm5.4 0h-1.8V49.9h1.8v16.3zm11.4 0h-1.8v-1.7c-.8 1.3-1.9 2-3.4 2-1.1 0-2-.3-2.6-.9-.6-.6-.9-1.3-.9-2.3 0-2.1 1.2-3.3 3.6-3.6l3.3-.5c0-1.9-.8-2.8-2.3-2.8-1.3 0-2.5.5-3.6 1.4V56c1.1-.7 2.3-1 3.7-1 2.6 0 3.9 1.4 3.9 4.1v7.1zm-1.7-5.6l-2.7.4c-.8.1-1.4.3-1.8.6s-.6.8-.6 1.5c0 .5.2 1 .6 1.3.4.3.9.5 1.5.5.9 0 1.6-.3 2.2-.9.6-.6.9-1.4.9-2.3v-1.1zm6.8 4v1.6h-1.8V49.9h1.8v7.2c.9-1.5 2.1-2.2 3.8-2.2 1.4 0 2.5.5 3.3 1.5.8 1 1.2 2.3 1.2 4 0 1.8-.4 3.3-1.3 4.4-.9 1.1-2.1 1.7-3.7 1.7-1.4 0-2.5-.6-3.3-1.9zm0-4.4v1.5c0 .9.3 1.7.9 2.3.6.6 1.3 1 2.3 1 1.1 0 1.9-.4 2.5-1.2.6-.8.9-2 .9-3.4 0-1.2-.3-2.2-.8-2.9-.6-.7-1.3-1-2.3-1-1 0-1.8.4-2.5 1.1s-1 1.5-1 2.6zm15.8 6.3c-1.6 0-2.9-.5-3.9-1.5s-1.5-2.4-1.5-4.1c0-1.8.5-3.3 1.5-4.3s2.4-1.6 4.1-1.6c1.6 0 2.9.5 3.8 1.5.9 1 1.4 2.4 1.4 4.2 0 1.8-.5 3.2-1.5 4.2-.9 1-2.3 1.6-3.9 1.6zm.1-10.1c-1.1 0-2 .4-2.7 1.2s-1 1.8-1 3.2c0 1.3.3 2.3 1 3.1s1.6 1.1 2.7 1.1 2-.4 2.6-1.1c.6-.7.9-1.8.9-3.1 0-1.4-.3-2.4-.9-3.2-.6-.8-1.5-1.2-2.6-1.2zm13.9.6c-.3-.2-.8-.4-1.3-.4-.8 0-1.4.4-1.9 1.1-.5.7-.8 1.7-.8 2.9v5.6H272v-11h1.8v2.3c.3-.8.6-1.4 1.1-1.8s1.1-.7 1.7-.7c.5 0 .8.1 1.1.2V57zm9.8 9.2h-1.8v-1.7c-.8 1.3-1.9 2-3.4 2-1.1 0-2-.3-2.6-.9-.6-.6-.9-1.3-.9-2.3 0-2.1 1.2-3.3 3.6-3.6l3.3-.5c0-1.9-.8-2.8-2.3-2.8-1.3 0-2.5.5-3.6 1.4V56c1.1-.7 2.3-1 3.7-1 2.6 0 3.9 1.4 3.9 4.1v7.1zm-1.8-5.6l-2.7.4c-.8.1-1.4.3-1.8.6s-.6.8-.6 1.5c0 .5.2 1 .6 1.3.4.3.9.5 1.5.5.9 0 1.6-.3 2.2-.9.6-.6.9-1.4.9-2.3v-1.1zm10.2 5.5c-.4.2-1 .3-1.6.3-1.9 0-2.9-1.1-2.9-3.2v-6.5h-1.9v-1.5h1.9v-2.7l1.8-.6v3.3h2.8v1.5h-2.8v6.2c0 .7.1 1.3.4 1.6s.7.5 1.2.5c.4 0 .8-.1 1.1-.4v1.5zm3.3-13.7c-.3 0-.6-.1-.8-.3s-.3-.5-.3-.8c0-.3.1-.6.3-.8s.5-.3.8-.3c.3 0 .6.1.8.3.2.2.3.5.3.8 0 .3-.1.6-.3.8-.2.2-.5.3-.8.3zm.8 13.8h-1.8v-11h1.8v11zm12.2-11l-4.4 11h-1.7l-4.2-11h1.9l2.8 8c.2.6.3 1.1.4 1.5.1-.6.2-1 .3-1.5l2.9-8h2zm10.8 6h-7.8c0 1.2.4 2.2 1 2.8s1.5 1 2.6 1c1.2 0 2.4-.4 3.4-1.2v1.7c-1 .7-2.2 1.1-3.8 1.1-1.6 0-2.8-.5-3.7-1.5-.9-1-1.3-2.4-1.3-4.2 0-1.7.5-3.1 1.5-4.2s2.2-1.6 3.6-1.6 2.6.5 3.3 1.4c.8.9 1.2 2.2 1.2 3.9v.8zm-1.8-1.5c0-1-.3-1.8-.7-2.4-.5-.6-1.2-.8-2-.8s-1.5.3-2.1.9c-.6.6-.9 1.4-1.1 2.3h5.9z"/></svg>