<svg version="1.1" id="Layer_1" xmlns="http://www.w3.org/2000/svg" x="0" y="0" viewBox="0 0 484 484" xml:space="preserve"><style>.st0{fill:#fff}</style><path class="st0" d="M1920 4484c-19-2-77-9-129-15-408-47-829-249-1144-548C129 3429-97 2708 45 2002 153 1472 478 994 937 692c251-165 545-275 842-316 146-21 439-21 580-1 692 100 1279 532 1577 1160 28 61 64 145 80 188 15 44 32 80 38 82s42 10 81 19c38 9 114 37 170 63 154 73 226 70 457-20 64-24 66-25 71-6 3 10 2 21-3 24-20 12-515 205-527 205-7 0-45-16-83-35-129-65-203-80-395-79-194 0-289 15-575 89-805 208-1079 262-1468 287-465 30-830-59-1089-267-134-108-223-222-314-405l-47-95-12 30c-21 52 12 313 65 521 118 461 381 842 755 1091 223 149 521 257 810 293 109 13 391 13 500 0 432-53 859-238 1220-526 110-89 308-287 390-393l65-83 3 42c4 52-22 238-49 345-52 211-148 437-261 620-222 356-576 652-973 812-241 97-457 141-725 147-91 3-181 2-200 0z" transform="matrix(.1 0 0 -.1 0 484)"/><path class="st0" d="M1980 2899c-352-31-666-133-917-298-51-33-93-62-93-64s44 18 98 44c441 219 1073 257 1817 108 209-41 462-108 683-180 161-53 266-92 640-234l63-25-31 43c-17 23-44 59-58 79-30 41-133 94-380 194-628 255-1302 378-1822 333z" transform="matrix(.1 0 0 -.1 0 484)"/></svg>